<mxfile host="app.diagrams.net" modified="2024-02-18T22:59:01.092Z" agent="Mozilla/5.0 (X11; Linux x86_64; rv:122.0) Gecko/20100101 Firefox/122.0" etag="EcAmYn9yMvnD2fbFFx-5" version="23.1.5" type="device" pages="4">
  <diagram name="Seite-1" id="YujmOwCt3KLsF25_ccmB">
    <mxGraphModel dx="1434" dy="822" grid="1" gridSize="10" guides="1" tooltips="1" connect="1" arrows="1" fold="1" page="1" pageScale="1" pageWidth="827" pageHeight="1169" math="0" shadow="0">
      <root>
        <mxCell id="0" />
        <mxCell id="1" parent="0" />
        <mxCell id="_o4kJLEU-T52ICrlenhl-10" style="edgeStyle=orthogonalEdgeStyle;rounded=0;orthogonalLoop=1;jettySize=auto;html=1;entryX=0;entryY=0.5;entryDx=0;entryDy=0;labelBackgroundColor=none;fontColor=default;" parent="1" source="_o4kJLEU-T52ICrlenhl-4" target="_o4kJLEU-T52ICrlenhl-5" edge="1">
          <mxGeometry relative="1" as="geometry" />
        </mxCell>
        <mxCell id="_o4kJLEU-T52ICrlenhl-4" value="Prodct Backlog" style="rounded=1;whiteSpace=wrap;html=1;labelBackgroundColor=none;" parent="1" vertex="1">
          <mxGeometry x="135" y="140" width="120" height="60" as="geometry" />
        </mxCell>
        <mxCell id="_o4kJLEU-T52ICrlenhl-11" style="edgeStyle=orthogonalEdgeStyle;rounded=0;orthogonalLoop=1;jettySize=auto;html=1;entryX=0;entryY=0.5;entryDx=0;entryDy=0;labelBackgroundColor=none;fontColor=default;" parent="1" source="_o4kJLEU-T52ICrlenhl-5" target="_o4kJLEU-T52ICrlenhl-6" edge="1">
          <mxGeometry relative="1" as="geometry" />
        </mxCell>
        <mxCell id="_o4kJLEU-T52ICrlenhl-5" value="Spring Planning" style="rounded=1;whiteSpace=wrap;html=1;labelBackgroundColor=none;" parent="1" vertex="1">
          <mxGeometry x="294" y="140" width="120" height="60" as="geometry" />
        </mxCell>
        <mxCell id="_o4kJLEU-T52ICrlenhl-12" style="edgeStyle=orthogonalEdgeStyle;rounded=0;orthogonalLoop=1;jettySize=auto;html=1;entryX=0;entryY=0.5;entryDx=0;entryDy=0;labelBackgroundColor=none;fontColor=default;" parent="1" source="_o4kJLEU-T52ICrlenhl-6" target="_o4kJLEU-T52ICrlenhl-7" edge="1">
          <mxGeometry relative="1" as="geometry" />
        </mxCell>
        <mxCell id="_o4kJLEU-T52ICrlenhl-6" value="Spring Backlog" style="rounded=1;whiteSpace=wrap;html=1;labelBackgroundColor=none;" parent="1" vertex="1">
          <mxGeometry x="450" y="140" width="120" height="60" as="geometry" />
        </mxCell>
        <mxCell id="_o4kJLEU-T52ICrlenhl-13" style="edgeStyle=orthogonalEdgeStyle;rounded=0;orthogonalLoop=1;jettySize=auto;html=1;labelBackgroundColor=none;fontColor=default;" parent="1" source="_o4kJLEU-T52ICrlenhl-7" target="_o4kJLEU-T52ICrlenhl-8" edge="1">
          <mxGeometry relative="1" as="geometry" />
        </mxCell>
        <mxCell id="_o4kJLEU-T52ICrlenhl-7" value="Sprint" style="rounded=1;whiteSpace=wrap;html=1;labelBackgroundColor=none;" parent="1" vertex="1">
          <mxGeometry x="610" y="140" width="120" height="60" as="geometry" />
        </mxCell>
        <mxCell id="_o4kJLEU-T52ICrlenhl-14" style="edgeStyle=orthogonalEdgeStyle;rounded=0;orthogonalLoop=1;jettySize=auto;html=1;labelBackgroundColor=none;fontColor=default;" parent="1" source="_o4kJLEU-T52ICrlenhl-8" target="_o4kJLEU-T52ICrlenhl-9" edge="1">
          <mxGeometry relative="1" as="geometry" />
        </mxCell>
        <mxCell id="_o4kJLEU-T52ICrlenhl-8" value="Potential Prodct" style="rounded=1;whiteSpace=wrap;html=1;labelBackgroundColor=none;" parent="1" vertex="1">
          <mxGeometry x="770" y="140" width="120" height="60" as="geometry" />
        </mxCell>
        <mxCell id="_o4kJLEU-T52ICrlenhl-15" style="edgeStyle=orthogonalEdgeStyle;rounded=0;orthogonalLoop=1;jettySize=auto;html=1;entryX=0;entryY=0.5;entryDx=0;entryDy=0;labelBackgroundColor=none;fontColor=default;" parent="1" source="_o4kJLEU-T52ICrlenhl-9" target="_o4kJLEU-T52ICrlenhl-4" edge="1">
          <mxGeometry relative="1" as="geometry">
            <Array as="points">
              <mxPoint x="1070" y="170" />
              <mxPoint x="1070" y="120" />
              <mxPoint x="115" y="120" />
              <mxPoint x="115" y="170" />
            </Array>
          </mxGeometry>
        </mxCell>
        <mxCell id="_o4kJLEU-T52ICrlenhl-9" value="Sprint Review" style="rounded=1;whiteSpace=wrap;html=1;labelBackgroundColor=none;" parent="1" vertex="1">
          <mxGeometry x="930" y="140" width="120" height="60" as="geometry" />
        </mxCell>
        <mxCell id="_o4kJLEU-T52ICrlenhl-17" value="Product&lt;br&gt;Owner" style="ellipse;whiteSpace=wrap;html=1;aspect=fixed;labelBackgroundColor=none;" parent="1" vertex="1">
          <mxGeometry x="90" y="290" width="80" height="80" as="geometry" />
        </mxCell>
        <mxCell id="_o4kJLEU-T52ICrlenhl-18" value="Scrum&lt;br&gt;Master" style="ellipse;whiteSpace=wrap;html=1;aspect=fixed;labelBackgroundColor=none;" parent="1" vertex="1">
          <mxGeometry x="180" y="290" width="80" height="80" as="geometry" />
        </mxCell>
        <mxCell id="_o4kJLEU-T52ICrlenhl-19" value="Team Members" style="ellipse;whiteSpace=wrap;html=1;aspect=fixed;labelBackgroundColor=none;" parent="1" vertex="1">
          <mxGeometry x="270" y="290" width="80" height="80" as="geometry" />
        </mxCell>
        <mxCell id="_o4kJLEU-T52ICrlenhl-24" style="edgeStyle=orthogonalEdgeStyle;rounded=0;orthogonalLoop=1;jettySize=auto;html=1;labelBackgroundColor=none;fontColor=default;" parent="1" source="_o4kJLEU-T52ICrlenhl-20" target="_o4kJLEU-T52ICrlenhl-23" edge="1">
          <mxGeometry relative="1" as="geometry" />
        </mxCell>
        <mxCell id="_o4kJLEU-T52ICrlenhl-20" value="Product&lt;br&gt;Backlog" style="ellipse;whiteSpace=wrap;html=1;aspect=fixed;labelBackgroundColor=none;" parent="1" vertex="1">
          <mxGeometry x="480" y="290" width="80" height="80" as="geometry" />
        </mxCell>
        <mxCell id="_o4kJLEU-T52ICrlenhl-26" style="edgeStyle=orthogonalEdgeStyle;rounded=0;orthogonalLoop=1;jettySize=auto;html=1;labelBackgroundColor=none;fontColor=default;" parent="1" source="_o4kJLEU-T52ICrlenhl-21" target="_o4kJLEU-T52ICrlenhl-25" edge="1">
          <mxGeometry relative="1" as="geometry" />
        </mxCell>
        <mxCell id="_o4kJLEU-T52ICrlenhl-21" value="Sprint&lt;br&gt;Backlog" style="ellipse;whiteSpace=wrap;html=1;aspect=fixed;labelBackgroundColor=none;" parent="1" vertex="1">
          <mxGeometry x="570" y="290" width="80" height="80" as="geometry" />
        </mxCell>
        <mxCell id="_o4kJLEU-T52ICrlenhl-28" style="edgeStyle=orthogonalEdgeStyle;rounded=0;orthogonalLoop=1;jettySize=auto;html=1;labelBackgroundColor=none;fontColor=default;" parent="1" source="_o4kJLEU-T52ICrlenhl-22" target="_o4kJLEU-T52ICrlenhl-27" edge="1">
          <mxGeometry relative="1" as="geometry" />
        </mxCell>
        <mxCell id="_o4kJLEU-T52ICrlenhl-22" value="Bruned down" style="ellipse;whiteSpace=wrap;html=1;aspect=fixed;labelBackgroundColor=none;" parent="1" vertex="1">
          <mxGeometry x="660" y="290" width="80" height="80" as="geometry" />
        </mxCell>
        <mxCell id="_o4kJLEU-T52ICrlenhl-23" value="Fefures of the Product that are in development like login and more" style="text;html=1;align=center;verticalAlign=middle;resizable=0;points=[];autosize=1;strokeColor=none;fillColor=none;labelBackgroundColor=none;" parent="1" vertex="1">
          <mxGeometry x="250" y="510" width="380" height="30" as="geometry" />
        </mxCell>
        <mxCell id="_o4kJLEU-T52ICrlenhl-25" value="userstories based on the productz backlog and its content like login" style="text;html=1;align=center;verticalAlign=middle;resizable=0;points=[];autosize=1;strokeColor=none;fillColor=none;labelBackgroundColor=none;" parent="1" vertex="1">
          <mxGeometry x="520" y="490" width="380" height="30" as="geometry" />
        </mxCell>
        <mxCell id="_o4kJLEU-T52ICrlenhl-27" value="view the progess throught the allready finished userstories that was into the sprint backlog" style="text;html=1;align=center;verticalAlign=middle;resizable=0;points=[];autosize=1;strokeColor=none;fillColor=none;labelBackgroundColor=none;" parent="1" vertex="1">
          <mxGeometry x="800" y="315" width="500" height="30" as="geometry" />
        </mxCell>
        <mxCell id="_o4kJLEU-T52ICrlenhl-29" value="Ceremonies" style="text;html=1;align=center;verticalAlign=middle;resizable=0;points=[];autosize=1;strokeColor=none;fillColor=none;labelBackgroundColor=none;" parent="1" vertex="1">
          <mxGeometry x="430" y="618" width="90" height="30" as="geometry" />
        </mxCell>
        <mxCell id="_o4kJLEU-T52ICrlenhl-30" value="Sprint&lt;br&gt;Planning" style="ellipse;whiteSpace=wrap;html=1;aspect=fixed;labelBackgroundColor=none;" parent="1" vertex="1">
          <mxGeometry x="345" y="660" width="80" height="80" as="geometry" />
        </mxCell>
        <mxCell id="_o4kJLEU-T52ICrlenhl-31" value="Daily Scrum" style="ellipse;whiteSpace=wrap;html=1;aspect=fixed;labelBackgroundColor=none;" parent="1" vertex="1">
          <mxGeometry x="435" y="660" width="80" height="80" as="geometry" />
        </mxCell>
        <mxCell id="_o4kJLEU-T52ICrlenhl-32" value="Sprint&lt;br&gt;Review" style="ellipse;whiteSpace=wrap;html=1;aspect=fixed;labelBackgroundColor=none;" parent="1" vertex="1">
          <mxGeometry x="525" y="660" width="80" height="80" as="geometry" />
        </mxCell>
        <mxCell id="_o4kJLEU-T52ICrlenhl-34" style="edgeStyle=orthogonalEdgeStyle;rounded=0;orthogonalLoop=1;jettySize=auto;html=1;entryX=0.133;entryY=0.933;entryDx=0;entryDy=0;entryPerimeter=0;labelBackgroundColor=none;fontColor=default;" parent="1" source="_o4kJLEU-T52ICrlenhl-32" edge="1">
          <mxGeometry relative="1" as="geometry">
            <mxPoint x="667.8800000000001" y="717.99" as="targetPoint" />
          </mxGeometry>
        </mxCell>
        <mxCell id="_o4kJLEU-T52ICrlenhl-35" value="review what is done like &quot;what did you do today of the project&quot;" style="text;html=1;align=center;verticalAlign=middle;resizable=0;points=[];autosize=1;strokeColor=none;fillColor=none;labelBackgroundColor=none;" parent="1" vertex="1">
          <mxGeometry x="295" y="798" width="350" height="30" as="geometry" />
        </mxCell>
        <mxCell id="_o4kJLEU-T52ICrlenhl-36" style="edgeStyle=orthogonalEdgeStyle;rounded=0;orthogonalLoop=1;jettySize=auto;html=1;entryX=0.549;entryY=1;entryDx=0;entryDy=0;entryPerimeter=0;labelBackgroundColor=none;fontColor=default;" parent="1" source="_o4kJLEU-T52ICrlenhl-31" target="_o4kJLEU-T52ICrlenhl-35" edge="1">
          <mxGeometry relative="1" as="geometry" />
        </mxCell>
        <mxCell id="_o4kJLEU-T52ICrlenhl-39" value="check if all planned goals are achived" style="text;html=1;align=center;verticalAlign=middle;resizable=0;points=[];autosize=1;strokeColor=none;fillColor=none;labelBackgroundColor=none;" parent="1" vertex="1">
          <mxGeometry x="670" y="700" width="220" height="30" as="geometry" />
        </mxCell>
        <mxCell id="_o4kJLEU-T52ICrlenhl-41" value="&lt;h1&gt;Product Backlog&lt;/h1&gt;&lt;div&gt;All product features that are to be implemented. these features are to be written as user stories.&amp;nbsp;&lt;/div&gt;" style="text;html=1;strokeColor=none;fillColor=none;spacing=5;spacingTop=-20;whiteSpace=wrap;overflow=hidden;rounded=0;labelBackgroundColor=none;" parent="1" vertex="1">
          <mxGeometry x="105" y="960" width="245" height="120" as="geometry" />
        </mxCell>
        <mxCell id="_o4kJLEU-T52ICrlenhl-43" value="Feature" style="text;html=1;align=center;verticalAlign=middle;resizable=0;points=[];autosize=1;strokeColor=none;fillColor=none;labelBackgroundColor=none;" parent="1" vertex="1">
          <mxGeometry x="70" y="1098" width="60" height="30" as="geometry" />
        </mxCell>
        <mxCell id="_o4kJLEU-T52ICrlenhl-44" value="Userstory" style="text;html=1;align=center;verticalAlign=middle;resizable=0;points=[];autosize=1;strokeColor=none;fillColor=none;labelBackgroundColor=none;" parent="1" vertex="1">
          <mxGeometry x="240" y="1098" width="70" height="30" as="geometry" />
        </mxCell>
        <mxCell id="_o4kJLEU-T52ICrlenhl-47" style="edgeStyle=orthogonalEdgeStyle;rounded=0;orthogonalLoop=1;jettySize=auto;html=1;labelBackgroundColor=none;fontColor=default;" parent="1" source="_o4kJLEU-T52ICrlenhl-45" target="_o4kJLEU-T52ICrlenhl-46" edge="1">
          <mxGeometry relative="1" as="geometry" />
        </mxCell>
        <mxCell id="_o4kJLEU-T52ICrlenhl-45" value="Login Features" style="text;html=1;align=center;verticalAlign=middle;resizable=0;points=[];autosize=1;strokeColor=none;fillColor=none;labelBackgroundColor=none;" parent="1" vertex="1">
          <mxGeometry x="50" y="1128" width="100" height="30" as="geometry" />
        </mxCell>
        <mxCell id="_o4kJLEU-T52ICrlenhl-49" style="edgeStyle=orthogonalEdgeStyle;rounded=0;orthogonalLoop=1;jettySize=auto;html=1;labelBackgroundColor=none;fontColor=default;" parent="1" source="_o4kJLEU-T52ICrlenhl-46" target="_o4kJLEU-T52ICrlenhl-48" edge="1">
          <mxGeometry relative="1" as="geometry" />
        </mxCell>
        <mxCell id="_o4kJLEU-T52ICrlenhl-46" value="As a ___&lt;br&gt;I need ____&lt;br&gt;so that ___" style="text;html=1;align=center;verticalAlign=middle;resizable=0;points=[];autosize=1;strokeColor=none;fillColor=none;labelBackgroundColor=none;" parent="1" vertex="1">
          <mxGeometry x="230" y="1113" width="90" height="60" as="geometry" />
        </mxCell>
        <mxCell id="_o4kJLEU-T52ICrlenhl-48" value="As a general user&lt;br&gt;I need login so that&lt;br&gt;asscess the website backend..." style="text;html=1;align=center;verticalAlign=middle;resizable=0;points=[];autosize=1;strokeColor=none;fillColor=none;labelBackgroundColor=none;" parent="1" vertex="1">
          <mxGeometry x="319" y="1120" width="190" height="60" as="geometry" />
        </mxCell>
        <mxCell id="_o4kJLEU-T52ICrlenhl-50" value="" style="rounded=1;whiteSpace=wrap;html=1;" parent="1" vertex="1">
          <mxGeometry x="1080" y="555" width="120" height="60" as="geometry" />
        </mxCell>
      </root>
    </mxGraphModel>
  </diagram>
  <diagram id="3aJXmVNH9dWS0tNwV_E3" name="Roles">
    <mxGraphModel grid="1" page="1" gridSize="10" guides="1" tooltips="1" connect="1" arrows="1" fold="1" pageScale="1" pageWidth="827" pageHeight="1169" math="0" shadow="0">
      <root>
        <mxCell id="0" />
        <mxCell id="1" parent="0" />
        <mxCell id="yRtULhE6Gc7jScWbl9n9-1" style="edgeStyle=orthogonalEdgeStyle;rounded=0;orthogonalLoop=1;jettySize=auto;html=1;entryX=0.5;entryY=0;entryDx=0;entryDy=0;dashed=1;endArrow=none;endFill=0;" parent="1" source="Uu69jhP2g59Hsaei0b5r-6" target="Uu69jhP2g59Hsaei0b5r-15" edge="1">
          <mxGeometry relative="1" as="geometry">
            <Array as="points">
              <mxPoint x="380" y="480" />
              <mxPoint x="130" y="480" />
            </Array>
          </mxGeometry>
        </mxCell>
        <mxCell id="yRtULhE6Gc7jScWbl9n9-2" style="edgeStyle=orthogonalEdgeStyle;rounded=0;orthogonalLoop=1;jettySize=auto;html=1;entryX=0.5;entryY=0;entryDx=0;entryDy=0;dashed=1;startArrow=none;startFill=0;endArrow=none;endFill=0;" parent="1" source="Uu69jhP2g59Hsaei0b5r-6" target="Uu69jhP2g59Hsaei0b5r-14" edge="1">
          <mxGeometry relative="1" as="geometry" />
        </mxCell>
        <mxCell id="yRtULhE6Gc7jScWbl9n9-3" style="edgeStyle=orthogonalEdgeStyle;rounded=0;orthogonalLoop=1;jettySize=auto;html=1;dashed=1;startArrow=none;startFill=0;endArrow=none;endFill=0;" parent="1" source="Uu69jhP2g59Hsaei0b5r-6" target="Uu69jhP2g59Hsaei0b5r-13" edge="1">
          <mxGeometry relative="1" as="geometry">
            <Array as="points">
              <mxPoint x="380" y="480" />
              <mxPoint x="630" y="480" />
            </Array>
          </mxGeometry>
        </mxCell>
        <mxCell id="Uu69jhP2g59Hsaei0b5r-6" value="Team Roles" style="rounded=0;whiteSpace=wrap;html=1;" parent="1" vertex="1">
          <mxGeometry x="320" y="390" width="120" height="60" as="geometry" />
        </mxCell>
        <mxCell id="59JyYLoNS_Dk_x_8xU96-32" style="edgeStyle=orthogonalEdgeStyle;rounded=0;orthogonalLoop=1;jettySize=auto;html=1;entryX=0.5;entryY=0;entryDx=0;entryDy=0;endArrow=none;endFill=0;dashed=1;" parent="1" source="Uu69jhP2g59Hsaei0b5r-13" target="59JyYLoNS_Dk_x_8xU96-26" edge="1">
          <mxGeometry relative="1" as="geometry" />
        </mxCell>
        <mxCell id="Uu69jhP2g59Hsaei0b5r-13" value="Scrum &lt;br&gt;Team" style="ellipse;whiteSpace=wrap;html=1;aspect=fixed;fillColor=#b0e3e6;strokeColor=#0e8088;" parent="1" vertex="1">
          <mxGeometry x="590" y="505" width="80" height="80" as="geometry" />
        </mxCell>
        <mxCell id="59JyYLoNS_Dk_x_8xU96-31" style="edgeStyle=orthogonalEdgeStyle;rounded=0;orthogonalLoop=1;jettySize=auto;html=1;endArrow=none;endFill=0;dashed=1;" parent="1" source="Uu69jhP2g59Hsaei0b5r-14" target="59JyYLoNS_Dk_x_8xU96-14" edge="1">
          <mxGeometry relative="1" as="geometry" />
        </mxCell>
        <mxCell id="Uu69jhP2g59Hsaei0b5r-14" value="Scrum &lt;br&gt;Master" style="ellipse;whiteSpace=wrap;html=1;aspect=fixed;fillColor=#fad9d5;strokeColor=#ae4132;" parent="1" vertex="1">
          <mxGeometry x="340" y="505" width="80" height="80" as="geometry" />
        </mxCell>
        <mxCell id="59JyYLoNS_Dk_x_8xU96-30" style="edgeStyle=orthogonalEdgeStyle;rounded=0;orthogonalLoop=1;jettySize=auto;html=1;entryX=0.5;entryY=0;entryDx=0;entryDy=0;endArrow=none;endFill=0;dashed=1;" parent="1" source="Uu69jhP2g59Hsaei0b5r-15" target="59JyYLoNS_Dk_x_8xU96-22" edge="1">
          <mxGeometry relative="1" as="geometry" />
        </mxCell>
        <mxCell id="Uu69jhP2g59Hsaei0b5r-15" value="Product Owner" style="ellipse;whiteSpace=wrap;html=1;aspect=fixed;fillColor=#fad7ac;strokeColor=#b46504;" parent="1" vertex="1">
          <mxGeometry x="90" y="505" width="80" height="80" as="geometry" />
        </mxCell>
        <mxCell id="59JyYLoNS_Dk_x_8xU96-14" value="Tasks &amp;amp; Responibilites" style="swimlane;fontStyle=0;childLayout=stackLayout;horizontal=1;startSize=30;horizontalStack=0;resizeParent=1;resizeParentMax=0;resizeLast=0;collapsible=1;marginBottom=0;whiteSpace=wrap;html=1;fillColor=#fad9d5;strokeColor=#ae4132;" parent="1" vertex="1">
          <mxGeometry x="260" y="620" width="240" height="120" as="geometry" />
        </mxCell>
        <mxCell id="59JyYLoNS_Dk_x_8xU96-15" value="introduction of scrum into the team" style="text;strokeColor=none;fillColor=none;align=left;verticalAlign=middle;spacingLeft=4;spacingRight=4;overflow=hidden;points=[[0,0.5],[1,0.5]];portConstraint=eastwest;rotatable=0;whiteSpace=wrap;html=1;" parent="59JyYLoNS_Dk_x_8xU96-14" vertex="1">
          <mxGeometry y="30" width="240" height="30" as="geometry" />
        </mxCell>
        <mxCell id="59JyYLoNS_Dk_x_8xU96-16" value="explaining scrum to the team members" style="text;strokeColor=none;fillColor=none;align=left;verticalAlign=middle;spacingLeft=4;spacingRight=4;overflow=hidden;points=[[0,0.5],[1,0.5]];portConstraint=eastwest;rotatable=0;whiteSpace=wrap;html=1;" parent="59JyYLoNS_Dk_x_8xU96-14" vertex="1">
          <mxGeometry y="60" width="240" height="30" as="geometry" />
        </mxCell>
        <mxCell id="59JyYLoNS_Dk_x_8xU96-17" value="managing scrum and leading it&#39;s teams" style="text;strokeColor=none;fillColor=none;align=left;verticalAlign=middle;spacingLeft=4;spacingRight=4;overflow=hidden;points=[[0,0.5],[1,0.5]];portConstraint=eastwest;rotatable=0;whiteSpace=wrap;html=1;" parent="59JyYLoNS_Dk_x_8xU96-14" vertex="1">
          <mxGeometry y="90" width="240" height="30" as="geometry" />
        </mxCell>
        <mxCell id="59JyYLoNS_Dk_x_8xU96-22" value="Tasks &amp;amp; Responibilites" style="swimlane;fontStyle=0;childLayout=stackLayout;horizontal=1;startSize=30;horizontalStack=0;resizeParent=1;resizeParentMax=0;resizeLast=0;collapsible=1;marginBottom=0;whiteSpace=wrap;html=1;fillColor=#fad7ac;strokeColor=#b46504;" parent="1" vertex="1">
          <mxGeometry x="10" y="620" width="240" height="150" as="geometry" />
        </mxCell>
        <mxCell id="59JyYLoNS_Dk_x_8xU96-24" value="have the vison how the poduct has to be" style="text;strokeColor=none;fillColor=none;align=left;verticalAlign=middle;spacingLeft=4;spacingRight=4;overflow=hidden;points=[[0,0.5],[1,0.5]];portConstraint=eastwest;rotatable=0;whiteSpace=wrap;html=1;" parent="59JyYLoNS_Dk_x_8xU96-22" vertex="1">
          <mxGeometry y="30" width="240" height="30" as="geometry" />
        </mxCell>
        <mxCell id="59JyYLoNS_Dk_x_8xU96-25" value="creates the product backlog and its order" style="text;strokeColor=none;fillColor=none;align=left;verticalAlign=middle;spacingLeft=4;spacingRight=4;overflow=hidden;points=[[0,0.5],[1,0.5]];portConstraint=eastwest;rotatable=0;whiteSpace=wrap;html=1;" parent="59JyYLoNS_Dk_x_8xU96-22" vertex="1">
          <mxGeometry y="60" width="240" height="30" as="geometry" />
        </mxCell>
        <mxCell id="59JyYLoNS_Dk_x_8xU96-34" value="responsible for the enhancement of the core idea and it&#39;s values" style="text;align=left;verticalAlign=middle;spacingLeft=4;spacingRight=4;overflow=hidden;points=[[0,0.5],[1,0.5]];portConstraint=eastwest;rotatable=0;whiteSpace=wrap;html=1;" parent="59JyYLoNS_Dk_x_8xU96-22" vertex="1">
          <mxGeometry y="90" width="240" height="30" as="geometry" />
        </mxCell>
        <mxCell id="6Ju3yim4oINkDlCcN3Nv-1" value="is the person that is defining the scale of the product and it&#39;s features" style="text;align=left;verticalAlign=middle;spacingLeft=4;spacingRight=4;overflow=hidden;points=[[0,0.5],[1,0.5]];portConstraint=eastwest;rotatable=0;whiteSpace=wrap;html=1;" vertex="1" parent="59JyYLoNS_Dk_x_8xU96-22">
          <mxGeometry y="120" width="240" height="30" as="geometry" />
        </mxCell>
        <mxCell id="59JyYLoNS_Dk_x_8xU96-26" value="Tasks &amp;amp; Responibilites" style="swimlane;fontStyle=0;childLayout=stackLayout;horizontal=1;startSize=30;horizontalStack=0;resizeParent=1;resizeParentMax=0;resizeLast=0;collapsible=1;marginBottom=0;whiteSpace=wrap;html=1;fillColor=#b0e3e6;strokeColor=#0e8088;" parent="1" vertex="1">
          <mxGeometry x="510" y="620" width="240" height="150" as="geometry" />
        </mxCell>
        <mxCell id="59JyYLoNS_Dk_x_8xU96-35" value="is mostly more than one person" style="text;strokeColor=none;fillColor=none;align=left;verticalAlign=middle;spacingLeft=4;spacingRight=4;overflow=hidden;points=[[0,0.5],[1,0.5]];portConstraint=eastwest;rotatable=0;whiteSpace=wrap;html=1;" parent="59JyYLoNS_Dk_x_8xU96-26" vertex="1">
          <mxGeometry y="30" width="240" height="30" as="geometry" />
        </mxCell>
        <mxCell id="59JyYLoNS_Dk_x_8xU96-27" value="creating the sprint backlog" style="text;strokeColor=none;fillColor=none;align=left;verticalAlign=middle;spacingLeft=4;spacingRight=4;overflow=hidden;points=[[0,0.5],[1,0.5]];portConstraint=eastwest;rotatable=0;whiteSpace=wrap;html=1;" parent="59JyYLoNS_Dk_x_8xU96-26" vertex="1">
          <mxGeometry y="60" width="240" height="30" as="geometry" />
        </mxCell>
        <mxCell id="59JyYLoNS_Dk_x_8xU96-28" value="follow the &quot;Definition of Done&quot; for sprint goales" style="text;strokeColor=none;fillColor=none;align=left;verticalAlign=middle;spacingLeft=4;spacingRight=4;overflow=hidden;points=[[0,0.5],[1,0.5]];portConstraint=eastwest;rotatable=0;whiteSpace=wrap;html=1;" parent="59JyYLoNS_Dk_x_8xU96-26" vertex="1">
          <mxGeometry y="90" width="240" height="30" as="geometry" />
        </mxCell>
        <mxCell id="_rw-UXWYDFqYwEjqIUbW-1" value="responsible for reaching the goals of the sprint" style="text;strokeColor=none;fillColor=none;align=left;verticalAlign=middle;spacingLeft=4;spacingRight=4;overflow=hidden;points=[[0,0.5],[1,0.5]];portConstraint=eastwest;rotatable=0;whiteSpace=wrap;html=1;" vertex="1" parent="59JyYLoNS_Dk_x_8xU96-26">
          <mxGeometry y="120" width="240" height="30" as="geometry" />
        </mxCell>
        <mxCell id="59JyYLoNS_Dk_x_8xU96-36" value="&lt;b&gt;&lt;i&gt;&lt;font style=&quot;font-size: 14px;&quot;&gt;having the vison of the product&lt;/font&gt;&lt;/i&gt;&lt;/b&gt;" style="text;html=1;strokeColor=none;fillColor=none;align=center;verticalAlign=middle;whiteSpace=wrap;rounded=0;" parent="1" vertex="1">
          <mxGeometry x="60" y="790" width="140" height="30" as="geometry" />
        </mxCell>
        <mxCell id="59JyYLoNS_Dk_x_8xU96-37" value="&lt;b&gt;&lt;i&gt;&lt;font style=&quot;font-size: 15px;&quot;&gt;is managing the teams and it&#39;s scrum&lt;/font&gt;&lt;/i&gt;&lt;/b&gt;" style="text;html=1;strokeColor=none;fillColor=none;align=center;verticalAlign=middle;whiteSpace=wrap;rounded=0;" parent="1" vertex="1">
          <mxGeometry x="310" y="790" width="140" height="30" as="geometry" />
        </mxCell>
        <mxCell id="59JyYLoNS_Dk_x_8xU96-38" value="&lt;b&gt;&lt;i&gt;&lt;font style=&quot;font-size: 14px;&quot;&gt;the team that is working on the project&lt;/font&gt;&lt;/i&gt;&lt;/b&gt;" style="text;html=1;strokeColor=none;fillColor=none;align=center;verticalAlign=middle;whiteSpace=wrap;rounded=0;" parent="1" vertex="1">
          <mxGeometry x="560" y="790" width="140" height="30" as="geometry" />
        </mxCell>
        <mxCell id="9fGaNDfoxrWNIFM6mCAj-1" value="Stakeholder" style="ellipse;whiteSpace=wrap;html=1;aspect=fixed;fillColor=#fad9d5;strokeColor=#ae4132;" vertex="1" parent="1">
          <mxGeometry x="340" y="240" width="80" height="80" as="geometry" />
        </mxCell>
        <mxCell id="9fGaNDfoxrWNIFM6mCAj-2" value="Team Roles" style="rounded=0;whiteSpace=wrap;html=1;" vertex="1" parent="1">
          <mxGeometry x="320" y="270" width="120" height="60" as="geometry" />
        </mxCell>
      </root>
    </mxGraphModel>
  </diagram>
  <diagram id="8C9BGQz33ruoWxVAFbFE" name="Sprint">
    <mxGraphModel grid="1" page="1" gridSize="10" guides="1" tooltips="1" connect="1" arrows="1" fold="1" pageScale="1" pageWidth="827" pageHeight="1169" math="0" shadow="0">
      <root>
        <mxCell id="0" />
        <mxCell id="1" parent="0" />
        <mxCell id="1xr1OHcnq9ssRLhy1sNk-1" value="Sprint Planing" style="shape=step;perimeter=stepPerimeter;whiteSpace=wrap;html=1;fixedSize=1;" parent="1" vertex="1">
          <mxGeometry y="570" width="120" height="80" as="geometry" />
        </mxCell>
        <mxCell id="Ytf7xDf_AK-z7gif_7jx-9" value="&lt;div&gt;building&lt;/div&gt;" style="shape=step;perimeter=stepPerimeter;whiteSpace=wrap;html=1;fixedSize=1;" vertex="1" parent="1">
          <mxGeometry x="220" y="570" width="120" height="80" as="geometry" />
        </mxCell>
        <mxCell id="Ytf7xDf_AK-z7gif_7jx-14" style="edgeStyle=orthogonalEdgeStyle;rounded=0;orthogonalLoop=1;jettySize=auto;html=1;exitX=1;exitY=0.5;exitDx=0;exitDy=0;entryX=0;entryY=0.5;entryDx=0;entryDy=0;" edge="1" parent="1" source="Ytf7xDf_AK-z7gif_7jx-10" target="Ytf7xDf_AK-z7gif_7jx-11">
          <mxGeometry relative="1" as="geometry" />
        </mxCell>
        <mxCell id="Ytf7xDf_AK-z7gif_7jx-10" value="testing" style="shape=step;perimeter=stepPerimeter;whiteSpace=wrap;html=1;fixedSize=1;" vertex="1" parent="1">
          <mxGeometry x="440" y="570" width="120" height="80" as="geometry" />
        </mxCell>
        <mxCell id="p4LH0FqR0PvF6dDhqmNy-2" style="edgeStyle=orthogonalEdgeStyle;rounded=0;orthogonalLoop=1;jettySize=auto;html=1;exitX=1;exitY=0.5;exitDx=0;exitDy=0;" edge="1" parent="1" source="Ytf7xDf_AK-z7gif_7jx-11" target="p4LH0FqR0PvF6dDhqmNy-1">
          <mxGeometry relative="1" as="geometry" />
        </mxCell>
        <mxCell id="Ytf7xDf_AK-z7gif_7jx-11" value="Planing" style="shape=step;perimeter=stepPerimeter;whiteSpace=wrap;html=1;fixedSize=1;" vertex="1" parent="1">
          <mxGeometry x="660" y="570" width="120" height="80" as="geometry" />
        </mxCell>
        <mxCell id="Ytf7xDf_AK-z7gif_7jx-12" style="edgeStyle=orthogonalEdgeStyle;rounded=0;orthogonalLoop=1;jettySize=auto;html=1;exitX=1;exitY=0.5;exitDx=0;exitDy=0;entryX=0;entryY=0.5;entryDx=0;entryDy=0;" edge="1" parent="1" source="1xr1OHcnq9ssRLhy1sNk-1" target="Ytf7xDf_AK-z7gif_7jx-9">
          <mxGeometry relative="1" as="geometry">
            <mxPoint x="210" y="630" as="targetPoint" />
          </mxGeometry>
        </mxCell>
        <mxCell id="yMJTsxeHfWrRuhm0KuJ8-4" value="building" style="shape=step;perimeter=stepPerimeter;whiteSpace=wrap;html=1;fixedSize=1;" vertex="1" parent="1">
          <mxGeometry x="220" y="570" width="120" height="80" as="geometry" />
        </mxCell>
        <mxCell id="Ytf7xDf_AK-z7gif_7jx-13" style="edgeStyle=orthogonalEdgeStyle;rounded=0;orthogonalLoop=1;jettySize=auto;html=1;exitX=1;exitY=0.5;exitDx=0;exitDy=0;entryX=0;entryY=0.5;entryDx=0;entryDy=0;" edge="1" parent="1" source="Ytf7xDf_AK-z7gif_7jx-9" target="Ytf7xDf_AK-z7gif_7jx-10">
          <mxGeometry relative="1" as="geometry">
            <mxPoint x="420" y="600" as="targetPoint" />
          </mxGeometry>
        </mxCell>
        <mxCell id="Ytf7xDf_AK-z7gif_7jx-15" value="the planning phase defines what is to be done in this sprint." style="rounded=0;whiteSpace=wrap;html=1;" vertex="1" parent="1">
          <mxGeometry y="650" width="100" height="60" as="geometry" />
        </mxCell>
        <mxCell id="yMJTsxeHfWrRuhm0KuJ8-1" value="the building phase is the execution of what is planned" style="rounded=0;whiteSpace=wrap;html=1;" vertex="1" parent="1">
          <mxGeometry x="220" y="650" width="100" height="60" as="geometry" />
        </mxCell>
        <mxCell id="yMJTsxeHfWrRuhm0KuJ8-2" value="the testing is to ensure all that was build works" style="rounded=0;whiteSpace=wrap;html=1;" vertex="1" parent="1">
          <mxGeometry x="440" y="650" width="100" height="60" as="geometry" />
        </mxCell>
        <mxCell id="yMJTsxeHfWrRuhm0KuJ8-3" value="the release defines the workphase of the sprint as done" style="rounded=0;whiteSpace=wrap;html=1;" vertex="1" parent="1">
          <mxGeometry x="660" y="650" width="100" height="60" as="geometry" />
        </mxCell>
        <mxCell id="p4LH0FqR0PvF6dDhqmNy-1" value="review" style="shape=step;perimeter=stepPerimeter;whiteSpace=wrap;html=1;fixedSize=1;" vertex="1" parent="1">
          <mxGeometry x="880" y="570" width="120" height="80" as="geometry" />
        </mxCell>
        <mxCell id="p4LH0FqR0PvF6dDhqmNy-3" value="the release defines the workphase of the sprint as done" style="rounded=0;whiteSpace=wrap;html=1;" vertex="1" parent="1">
          <mxGeometry x="880" y="650" width="100" height="60" as="geometry" />
        </mxCell>
        <mxCell id="HS-cQMUUF17yYIAZoPdI-1" value="Sprint &lt;br&gt;Planing" style="shape=step;perimeter=stepPerimeter;whiteSpace=wrap;html=1;fixedSize=1;fillColor=#d5e8d4;strokeColor=#82b366;" vertex="1" parent="1">
          <mxGeometry x="30" y="80" width="140" height="80" as="geometry" />
        </mxCell>
        <mxCell id="HS-cQMUUF17yYIAZoPdI-2" value="Sprint &lt;br&gt;Work" style="shape=step;perimeter=stepPerimeter;whiteSpace=wrap;html=1;fixedSize=1;fillColor=#dae8fc;strokeColor=#6c8ebf;" vertex="1" parent="1">
          <mxGeometry x="160" y="80" width="140" height="80" as="geometry" />
        </mxCell>
        <mxCell id="HS-cQMUUF17yYIAZoPdI-3" value="Sprint &lt;br&gt;Review" style="shape=step;perimeter=stepPerimeter;whiteSpace=wrap;html=1;fixedSize=1;fillColor=#ffe6cc;strokeColor=#d79b00;" vertex="1" parent="1">
          <mxGeometry x="290" y="80" width="140" height="80" as="geometry" />
        </mxCell>
        <mxCell id="HS-cQMUUF17yYIAZoPdI-7" style="edgeStyle=orthogonalEdgeStyle;rounded=0;orthogonalLoop=1;jettySize=auto;html=1;entryX=0;entryY=0.5;entryDx=0;entryDy=0;" edge="1" parent="1" source="HS-cQMUUF17yYIAZoPdI-4" target="HS-cQMUUF17yYIAZoPdI-1">
          <mxGeometry relative="1" as="geometry">
            <Array as="points">
              <mxPoint x="620" y="120" />
              <mxPoint x="620" y="70" />
              <mxPoint x="-10" y="70" />
              <mxPoint x="-10" y="120" />
            </Array>
          </mxGeometry>
        </mxCell>
        <mxCell id="HS-cQMUUF17yYIAZoPdI-4" value="Sprint &lt;br&gt;Retrospektive" style="shape=step;perimeter=stepPerimeter;whiteSpace=wrap;html=1;fixedSize=1;fillColor=#ffe6cc;strokeColor=#d79b00;" vertex="1" parent="1">
          <mxGeometry x="420" y="80" width="140" height="80" as="geometry" />
        </mxCell>
        <mxCell id="HS-cQMUUF17yYIAZoPdI-5" value="&lt;b&gt;&lt;i&gt;&lt;font style=&quot;font-size: 14px;&quot;&gt;Sprint Start&lt;/font&gt;&lt;/i&gt;&lt;/b&gt;" style="text;html=1;align=center;verticalAlign=middle;resizable=0;points=[];autosize=1;strokeColor=none;fillColor=none;" vertex="1" parent="1">
          <mxGeometry x="-30" y="40" width="110" height="30" as="geometry" />
        </mxCell>
        <mxCell id="HS-cQMUUF17yYIAZoPdI-6" value="&lt;b&gt;&lt;i&gt;&lt;font style=&quot;font-size: 14px;&quot;&gt;Sprint End&lt;/font&gt;&lt;/i&gt;&lt;/b&gt;" style="text;html=1;align=center;verticalAlign=middle;resizable=0;points=[];autosize=1;strokeColor=none;fillColor=none;" vertex="1" parent="1">
          <mxGeometry x="230" y="40" width="100" height="30" as="geometry" />
        </mxCell>
        <mxCell id="HS-cQMUUF17yYIAZoPdI-12" value="Essentials" style="swimlane;fontStyle=0;childLayout=stackLayout;horizontal=1;startSize=30;horizontalStack=0;resizeParent=1;resizeParentMax=0;resizeLast=0;collapsible=1;marginBottom=0;whiteSpace=wrap;html=1;fillColor=#d5e8d4;strokeColor=#82b366;" vertex="1" parent="1">
          <mxGeometry x="-50" y="290" width="140" height="120" as="geometry">
            <mxRectangle x="-50" y="290" width="100" height="30" as="alternateBounds" />
          </mxGeometry>
        </mxCell>
        <mxCell id="HS-cQMUUF17yYIAZoPdI-13" value="Item 1" style="text;strokeColor=none;fillColor=none;align=left;verticalAlign=middle;spacingLeft=4;spacingRight=4;overflow=hidden;points=[[0,0.5],[1,0.5]];portConstraint=eastwest;rotatable=0;whiteSpace=wrap;html=1;" vertex="1" parent="HS-cQMUUF17yYIAZoPdI-12">
          <mxGeometry y="30" width="140" height="30" as="geometry" />
        </mxCell>
        <mxCell id="HS-cQMUUF17yYIAZoPdI-14" value="Item 2" style="text;strokeColor=none;fillColor=none;align=left;verticalAlign=middle;spacingLeft=4;spacingRight=4;overflow=hidden;points=[[0,0.5],[1,0.5]];portConstraint=eastwest;rotatable=0;whiteSpace=wrap;html=1;" vertex="1" parent="HS-cQMUUF17yYIAZoPdI-12">
          <mxGeometry y="60" width="140" height="30" as="geometry" />
        </mxCell>
        <mxCell id="HS-cQMUUF17yYIAZoPdI-15" value="Item 3" style="text;strokeColor=none;fillColor=none;align=left;verticalAlign=middle;spacingLeft=4;spacingRight=4;overflow=hidden;points=[[0,0.5],[1,0.5]];portConstraint=eastwest;rotatable=0;whiteSpace=wrap;html=1;" vertex="1" parent="HS-cQMUUF17yYIAZoPdI-12">
          <mxGeometry y="90" width="140" height="30" as="geometry" />
        </mxCell>
      </root>
    </mxGraphModel>
  </diagram>
  <diagram id="SCTNsipO27F24VzZu_hE" name="Artifacts">
    <mxGraphModel dx="1434" dy="822" grid="1" gridSize="10" guides="1" tooltips="1" connect="1" arrows="1" fold="1" page="1" pageScale="1" pageWidth="827" pageHeight="1169" math="0" shadow="0">
      <root>
        <mxCell id="0" />
        <mxCell id="1" parent="0" />
        <mxCell id="KCgUKRLPg0YAuFv_2D13-1" style="edgeStyle=orthogonalEdgeStyle;rounded=0;orthogonalLoop=1;jettySize=auto;html=1;entryX=0.5;entryY=0;entryDx=0;entryDy=0;dashed=1;endArrow=none;endFill=0;" edge="1" parent="1" source="KCgUKRLPg0YAuFv_2D13-4" target="KCgUKRLPg0YAuFv_2D13-10">
          <mxGeometry relative="1" as="geometry">
            <Array as="points">
              <mxPoint x="380" y="480" />
              <mxPoint x="130" y="480" />
            </Array>
          </mxGeometry>
        </mxCell>
        <mxCell id="KCgUKRLPg0YAuFv_2D13-2" style="edgeStyle=orthogonalEdgeStyle;rounded=0;orthogonalLoop=1;jettySize=auto;html=1;entryX=0.5;entryY=0;entryDx=0;entryDy=0;dashed=1;startArrow=none;startFill=0;endArrow=none;endFill=0;" edge="1" parent="1" source="KCgUKRLPg0YAuFv_2D13-4" target="KCgUKRLPg0YAuFv_2D13-8">
          <mxGeometry relative="1" as="geometry" />
        </mxCell>
        <mxCell id="KCgUKRLPg0YAuFv_2D13-3" style="edgeStyle=orthogonalEdgeStyle;rounded=0;orthogonalLoop=1;jettySize=auto;html=1;dashed=1;startArrow=none;startFill=0;endArrow=none;endFill=0;" edge="1" parent="1" source="KCgUKRLPg0YAuFv_2D13-4" target="KCgUKRLPg0YAuFv_2D13-6">
          <mxGeometry relative="1" as="geometry">
            <Array as="points">
              <mxPoint x="380" y="480" />
              <mxPoint x="630" y="480" />
            </Array>
          </mxGeometry>
        </mxCell>
        <mxCell id="KCgUKRLPg0YAuFv_2D13-4" value="Artifacts" style="rounded=0;whiteSpace=wrap;html=1;" vertex="1" parent="1">
          <mxGeometry x="320" y="390" width="120" height="60" as="geometry" />
        </mxCell>
        <mxCell id="KCgUKRLPg0YAuFv_2D13-5" style="edgeStyle=orthogonalEdgeStyle;rounded=0;orthogonalLoop=1;jettySize=auto;html=1;entryX=0.5;entryY=0;entryDx=0;entryDy=0;endArrow=none;endFill=0;dashed=1;" edge="1" parent="1" source="KCgUKRLPg0YAuFv_2D13-6" target="KCgUKRLPg0YAuFv_2D13-20">
          <mxGeometry relative="1" as="geometry" />
        </mxCell>
        <mxCell id="KCgUKRLPg0YAuFv_2D13-6" value="Sprint&lt;br&gt;Review" style="ellipse;whiteSpace=wrap;html=1;aspect=fixed;fillColor=#b0e3e6;strokeColor=#0e8088;" vertex="1" parent="1">
          <mxGeometry x="590" y="505" width="80" height="80" as="geometry" />
        </mxCell>
        <mxCell id="KCgUKRLPg0YAuFv_2D13-7" style="edgeStyle=orthogonalEdgeStyle;rounded=0;orthogonalLoop=1;jettySize=auto;html=1;endArrow=none;endFill=0;dashed=1;" edge="1" parent="1" source="KCgUKRLPg0YAuFv_2D13-8" target="KCgUKRLPg0YAuFv_2D13-11">
          <mxGeometry relative="1" as="geometry" />
        </mxCell>
        <mxCell id="KCgUKRLPg0YAuFv_2D13-8" value="Daily &lt;br&gt;Scrum" style="ellipse;whiteSpace=wrap;html=1;aspect=fixed;fillColor=#fad9d5;strokeColor=#ae4132;" vertex="1" parent="1">
          <mxGeometry x="340" y="505" width="80" height="80" as="geometry" />
        </mxCell>
        <mxCell id="KCgUKRLPg0YAuFv_2D13-9" style="edgeStyle=orthogonalEdgeStyle;rounded=0;orthogonalLoop=1;jettySize=auto;html=1;entryX=0.5;entryY=0;entryDx=0;entryDy=0;endArrow=none;endFill=0;dashed=1;" edge="1" parent="1" source="KCgUKRLPg0YAuFv_2D13-10" target="KCgUKRLPg0YAuFv_2D13-15">
          <mxGeometry relative="1" as="geometry" />
        </mxCell>
        <mxCell id="KCgUKRLPg0YAuFv_2D13-10" value="Sprint Planning" style="ellipse;whiteSpace=wrap;html=1;aspect=fixed;fillColor=#fad7ac;strokeColor=#b46504;" vertex="1" parent="1">
          <mxGeometry x="90" y="505" width="80" height="80" as="geometry" />
        </mxCell>
        <mxCell id="KCgUKRLPg0YAuFv_2D13-11" value="Tasks &amp;amp; Responibilites" style="swimlane;fontStyle=0;childLayout=stackLayout;horizontal=1;startSize=30;horizontalStack=0;resizeParent=1;resizeParentMax=0;resizeLast=0;collapsible=1;marginBottom=0;whiteSpace=wrap;html=1;fillColor=#fad9d5;strokeColor=#ae4132;" vertex="1" parent="1">
          <mxGeometry x="260" y="620" width="240" height="120" as="geometry" />
        </mxCell>
        <mxCell id="KCgUKRLPg0YAuFv_2D13-12" value="introduction of scrum into the team" style="text;strokeColor=none;fillColor=none;align=left;verticalAlign=middle;spacingLeft=4;spacingRight=4;overflow=hidden;points=[[0,0.5],[1,0.5]];portConstraint=eastwest;rotatable=0;whiteSpace=wrap;html=1;" vertex="1" parent="KCgUKRLPg0YAuFv_2D13-11">
          <mxGeometry y="30" width="240" height="30" as="geometry" />
        </mxCell>
        <mxCell id="KCgUKRLPg0YAuFv_2D13-13" value="explaining scrum to the team members" style="text;strokeColor=none;fillColor=none;align=left;verticalAlign=middle;spacingLeft=4;spacingRight=4;overflow=hidden;points=[[0,0.5],[1,0.5]];portConstraint=eastwest;rotatable=0;whiteSpace=wrap;html=1;" vertex="1" parent="KCgUKRLPg0YAuFv_2D13-11">
          <mxGeometry y="60" width="240" height="30" as="geometry" />
        </mxCell>
        <mxCell id="KCgUKRLPg0YAuFv_2D13-14" value="managing scrum and leading it&#39;s teams" style="text;strokeColor=none;fillColor=none;align=left;verticalAlign=middle;spacingLeft=4;spacingRight=4;overflow=hidden;points=[[0,0.5],[1,0.5]];portConstraint=eastwest;rotatable=0;whiteSpace=wrap;html=1;" vertex="1" parent="KCgUKRLPg0YAuFv_2D13-11">
          <mxGeometry y="90" width="240" height="30" as="geometry" />
        </mxCell>
        <mxCell id="KCgUKRLPg0YAuFv_2D13-15" value="Tasks &amp;amp; Responibilites" style="swimlane;fontStyle=0;childLayout=stackLayout;horizontal=1;startSize=30;horizontalStack=0;resizeParent=1;resizeParentMax=0;resizeLast=0;collapsible=1;marginBottom=0;whiteSpace=wrap;html=1;fillColor=#fad7ac;strokeColor=#b46504;" vertex="1" parent="1">
          <mxGeometry x="10" y="620" width="240" height="150" as="geometry" />
        </mxCell>
        <mxCell id="KCgUKRLPg0YAuFv_2D13-16" value="have the vison how the poduct has to be" style="text;strokeColor=none;fillColor=none;align=left;verticalAlign=middle;spacingLeft=4;spacingRight=4;overflow=hidden;points=[[0,0.5],[1,0.5]];portConstraint=eastwest;rotatable=0;whiteSpace=wrap;html=1;" vertex="1" parent="KCgUKRLPg0YAuFv_2D13-15">
          <mxGeometry y="30" width="240" height="30" as="geometry" />
        </mxCell>
        <mxCell id="KCgUKRLPg0YAuFv_2D13-17" value="creates the product backlog and its order" style="text;strokeColor=none;fillColor=none;align=left;verticalAlign=middle;spacingLeft=4;spacingRight=4;overflow=hidden;points=[[0,0.5],[1,0.5]];portConstraint=eastwest;rotatable=0;whiteSpace=wrap;html=1;" vertex="1" parent="KCgUKRLPg0YAuFv_2D13-15">
          <mxGeometry y="60" width="240" height="30" as="geometry" />
        </mxCell>
        <mxCell id="KCgUKRLPg0YAuFv_2D13-18" value="responsible for the enhancement of the core idea and it&#39;s values" style="text;align=left;verticalAlign=middle;spacingLeft=4;spacingRight=4;overflow=hidden;points=[[0,0.5],[1,0.5]];portConstraint=eastwest;rotatable=0;whiteSpace=wrap;html=1;" vertex="1" parent="KCgUKRLPg0YAuFv_2D13-15">
          <mxGeometry y="90" width="240" height="30" as="geometry" />
        </mxCell>
        <mxCell id="KCgUKRLPg0YAuFv_2D13-19" value="is the person that is defining the scale of the product and it&#39;s features" style="text;align=left;verticalAlign=middle;spacingLeft=4;spacingRight=4;overflow=hidden;points=[[0,0.5],[1,0.5]];portConstraint=eastwest;rotatable=0;whiteSpace=wrap;html=1;" vertex="1" parent="KCgUKRLPg0YAuFv_2D13-15">
          <mxGeometry y="120" width="240" height="30" as="geometry" />
        </mxCell>
        <mxCell id="KCgUKRLPg0YAuFv_2D13-20" value="Tasks &amp;amp; Responibilites" style="swimlane;fontStyle=0;childLayout=stackLayout;horizontal=1;startSize=30;horizontalStack=0;resizeParent=1;resizeParentMax=0;resizeLast=0;collapsible=1;marginBottom=0;whiteSpace=wrap;html=1;fillColor=#b0e3e6;strokeColor=#0e8088;" vertex="1" parent="1">
          <mxGeometry x="510" y="620" width="240" height="150" as="geometry" />
        </mxCell>
        <mxCell id="KCgUKRLPg0YAuFv_2D13-21" value="is mostly more than one person" style="text;strokeColor=none;fillColor=none;align=left;verticalAlign=middle;spacingLeft=4;spacingRight=4;overflow=hidden;points=[[0,0.5],[1,0.5]];portConstraint=eastwest;rotatable=0;whiteSpace=wrap;html=1;" vertex="1" parent="KCgUKRLPg0YAuFv_2D13-20">
          <mxGeometry y="30" width="240" height="30" as="geometry" />
        </mxCell>
        <mxCell id="KCgUKRLPg0YAuFv_2D13-22" value="creating the sprint backlog" style="text;strokeColor=none;fillColor=none;align=left;verticalAlign=middle;spacingLeft=4;spacingRight=4;overflow=hidden;points=[[0,0.5],[1,0.5]];portConstraint=eastwest;rotatable=0;whiteSpace=wrap;html=1;" vertex="1" parent="KCgUKRLPg0YAuFv_2D13-20">
          <mxGeometry y="60" width="240" height="30" as="geometry" />
        </mxCell>
        <mxCell id="KCgUKRLPg0YAuFv_2D13-23" value="follow the &quot;Definition of Done&quot; for sprint goales" style="text;strokeColor=none;fillColor=none;align=left;verticalAlign=middle;spacingLeft=4;spacingRight=4;overflow=hidden;points=[[0,0.5],[1,0.5]];portConstraint=eastwest;rotatable=0;whiteSpace=wrap;html=1;" vertex="1" parent="KCgUKRLPg0YAuFv_2D13-20">
          <mxGeometry y="90" width="240" height="30" as="geometry" />
        </mxCell>
        <mxCell id="KCgUKRLPg0YAuFv_2D13-24" value="responsible for reaching the goals of the sprint" style="text;strokeColor=none;fillColor=none;align=left;verticalAlign=middle;spacingLeft=4;spacingRight=4;overflow=hidden;points=[[0,0.5],[1,0.5]];portConstraint=eastwest;rotatable=0;whiteSpace=wrap;html=1;" vertex="1" parent="KCgUKRLPg0YAuFv_2D13-20">
          <mxGeometry y="120" width="240" height="30" as="geometry" />
        </mxCell>
        <mxCell id="KCgUKRLPg0YAuFv_2D13-25" value="&lt;b&gt;&lt;i&gt;&lt;font style=&quot;font-size: 14px;&quot;&gt;having the vison of the product&lt;/font&gt;&lt;/i&gt;&lt;/b&gt;" style="text;html=1;strokeColor=none;fillColor=none;align=center;verticalAlign=middle;whiteSpace=wrap;rounded=0;" vertex="1" parent="1">
          <mxGeometry x="60" y="790" width="140" height="30" as="geometry" />
        </mxCell>
        <mxCell id="KCgUKRLPg0YAuFv_2D13-26" value="&lt;b&gt;&lt;i&gt;&lt;font style=&quot;font-size: 15px;&quot;&gt;is managing the teams and it&#39;s scrum&lt;/font&gt;&lt;/i&gt;&lt;/b&gt;" style="text;html=1;strokeColor=none;fillColor=none;align=center;verticalAlign=middle;whiteSpace=wrap;rounded=0;" vertex="1" parent="1">
          <mxGeometry x="310" y="790" width="140" height="30" as="geometry" />
        </mxCell>
        <mxCell id="KCgUKRLPg0YAuFv_2D13-27" value="&lt;b&gt;&lt;i&gt;&lt;font style=&quot;font-size: 14px;&quot;&gt;the team that is working on the project&lt;/font&gt;&lt;/i&gt;&lt;/b&gt;" style="text;html=1;strokeColor=none;fillColor=none;align=center;verticalAlign=middle;whiteSpace=wrap;rounded=0;" vertex="1" parent="1">
          <mxGeometry x="560" y="790" width="140" height="30" as="geometry" />
        </mxCell>
      </root>
    </mxGraphModel>
  </diagram>
</mxfile>
